<svg width="1070" height="586" viewBox="0 0 1070 586" fill="none" xmlns="http://www.w3.org/2000/svg">
<path d="M270.264 406.871V464H81.0547V406.871H270.264ZM104.98 108.531V464H31.7383V108.531H104.98ZM245.605 253.307V308.971H81.0547V253.307H245.605ZM270.02 108.531V165.904H81.0547V108.531H270.02Z" fill="black"/>
<path d="M383.486 237.723V186.139C383.486 182.429 382.88 179.254 381.667 176.614C380.454 173.903 378.563 171.798 375.995 170.3C373.498 168.801 370.251 168.052 366.256 168.052C362.831 168.052 359.87 168.659 357.373 169.872C354.876 171.013 352.95 172.69 351.594 174.902C350.239 177.042 349.561 179.575 349.561 182.5H318.739C318.739 177.577 319.88 172.904 322.164 168.48C324.447 164.057 327.764 160.168 332.116 156.815C336.469 153.39 341.641 150.715 347.634 148.789C353.699 146.862 360.477 145.899 367.968 145.899C376.958 145.899 384.949 147.397 391.941 150.394C398.933 153.39 404.427 157.885 408.422 163.879C412.489 169.872 414.522 177.363 414.522 186.353V235.903C414.522 242.253 414.915 247.462 415.699 251.528C416.484 255.524 417.626 259.02 419.124 262.016V263.836H387.981C386.483 260.696 385.341 256.772 384.557 252.063C383.843 247.283 383.486 242.503 383.486 237.723ZM387.553 193.309L387.767 210.754H370.537C366.47 210.754 362.938 211.217 359.942 212.145C356.945 213.072 354.484 214.392 352.557 216.105C350.631 217.746 349.204 219.672 348.277 221.884C347.42 224.095 346.992 226.521 346.992 229.161C346.992 231.801 347.599 234.191 348.812 236.331C350.025 238.4 351.773 240.041 354.056 241.254C356.339 242.396 359.014 242.967 362.082 242.967C366.72 242.967 370.751 242.039 374.176 240.184C377.6 238.329 380.24 236.046 382.095 233.335C384.021 230.624 385.02 228.055 385.092 225.629L393.225 238.686C392.084 241.611 390.514 244.643 388.516 247.783C386.59 250.922 384.128 253.883 381.132 256.665C378.135 259.377 374.532 261.624 370.323 263.408C366.113 265.12 361.119 265.976 355.34 265.976C347.991 265.976 341.32 264.513 335.327 261.588C329.405 258.592 324.696 254.489 321.2 249.281C317.776 244.001 316.063 238.008 316.063 231.301C316.063 225.237 317.205 219.85 319.488 215.141C321.771 210.432 325.124 206.473 329.548 203.262C334.043 199.98 339.644 197.519 346.35 195.878C353.057 194.165 360.834 193.309 369.681 193.309H387.553ZM495.002 148.039V169.872H427.579V148.039H495.002ZM444.274 119.465H475.096V228.947C475.096 232.3 475.524 234.869 476.38 236.652C477.308 238.436 478.663 239.685 480.447 240.398C482.231 241.04 484.478 241.361 487.189 241.361C489.116 241.361 490.828 241.29 492.326 241.147C493.896 240.933 495.216 240.719 496.286 240.505L496.393 263.194C493.753 264.05 490.899 264.728 487.831 265.227C484.763 265.726 481.374 265.976 477.664 265.976C470.886 265.976 464.965 264.87 459.899 262.658C454.905 260.375 451.052 256.737 448.341 251.742C445.63 246.748 444.274 240.184 444.274 232.051V119.465Z" fill="black"/>
<path d="M354.745 299.095V468H322.965V299.095H354.745ZM435.679 470.199C426.442 470.199 418.158 468.733 410.827 465.801C403.496 462.795 397.265 458.653 392.133 453.375C387.075 448.096 383.189 441.975 380.477 435.011C377.764 427.973 376.408 420.495 376.408 412.578V408.179C376.408 399.162 377.691 390.915 380.257 383.438C382.823 375.96 386.488 369.472 391.253 363.974C396.092 358.476 401.956 354.26 408.847 351.328C415.739 348.322 423.509 346.819 432.16 346.819C440.59 346.819 448.068 348.212 454.593 350.998C461.117 353.784 466.579 357.743 470.977 362.874C475.449 368.006 478.821 374.164 481.094 381.348C483.367 388.459 484.503 396.377 484.503 405.1V418.296H389.934V397.183H453.383V394.764C453.383 390.365 452.577 386.443 450.964 382.998C449.424 379.479 447.078 376.693 443.926 374.64C440.774 372.588 436.742 371.561 431.83 371.561C427.651 371.561 424.059 372.478 421.053 374.311C418.048 376.143 415.592 378.709 413.686 382.008C411.853 385.307 410.46 389.192 409.507 393.664C408.628 398.063 408.188 402.901 408.188 408.179V412.578C408.188 417.343 408.847 421.742 410.167 425.774C411.56 429.806 413.503 433.288 415.995 436.22C418.561 439.153 421.64 441.425 425.232 443.038C428.898 444.651 433.04 445.457 437.658 445.457C443.376 445.457 448.691 444.358 453.603 442.158C458.588 439.886 462.877 436.477 466.469 431.932L481.864 448.646C479.371 452.238 475.962 455.684 471.637 458.983C467.385 462.282 462.253 464.994 456.242 467.12C450.231 469.173 443.376 470.199 435.679 470.199ZM541.464 444.908L567.856 349.019H600.955L560.818 468H540.804L541.464 444.908ZM523.32 349.019L549.822 445.017L550.371 468H530.248L490.111 349.019H523.32ZM677.6 441.169V388.166C677.6 384.354 676.977 381.092 675.73 378.379C674.484 375.593 672.542 373.431 669.902 371.891C667.337 370.352 664.001 369.582 659.896 369.582C656.377 369.582 653.334 370.205 650.769 371.451C648.203 372.624 646.223 374.347 644.831 376.62C643.438 378.819 642.741 381.422 642.741 384.427H611.072C611.072 379.369 612.245 374.567 614.59 370.022C616.936 365.477 620.345 361.481 624.817 358.036C629.289 354.517 634.604 351.768 640.762 349.789C646.993 347.809 653.958 346.819 661.655 346.819C670.892 346.819 679.103 348.359 686.287 351.438C693.471 354.517 699.116 359.135 703.222 365.293C707.4 371.451 709.489 379.149 709.489 388.386V439.299C709.489 445.824 709.893 451.175 710.699 455.354C711.506 459.459 712.678 463.052 714.218 466.131V468H682.218C680.679 464.774 679.506 460.742 678.7 455.904C677.966 450.992 677.6 446.08 677.6 441.169ZM681.779 395.534L681.998 413.458H664.294C660.116 413.458 656.487 413.934 653.408 414.887C650.329 415.84 647.8 417.197 645.82 418.956C643.841 420.642 642.375 422.621 641.422 424.894C640.542 427.167 640.102 429.659 640.102 432.372C640.102 435.084 640.725 437.54 641.971 439.739C643.218 441.865 645.014 443.551 647.36 444.798C649.706 445.971 652.455 446.557 655.607 446.557C660.372 446.557 664.514 445.604 668.033 443.698C671.552 441.792 674.264 439.446 676.17 436.66C678.15 433.874 679.176 431.235 679.249 428.743L687.607 442.158C686.434 445.164 684.821 448.28 682.768 451.505C680.789 454.731 678.26 457.773 675.181 460.632C672.102 463.418 668.4 465.727 664.074 467.56C659.749 469.32 654.617 470.199 648.679 470.199C641.128 470.199 634.274 468.696 628.116 465.691C622.031 462.612 617.193 458.396 613.601 453.045C610.082 447.62 608.322 441.462 608.322 434.571C608.322 428.34 609.495 422.805 611.841 417.966C614.187 413.128 617.633 409.059 622.178 405.76C626.796 402.388 632.551 399.859 639.442 398.173C646.333 396.413 654.324 395.534 663.415 395.534H681.779ZM792.183 349.019V371.451H722.905V349.019H792.183ZM740.06 319.658H771.729V432.152C771.729 435.597 772.169 438.236 773.049 440.069C774.002 441.902 775.395 443.185 777.227 443.918C779.06 444.578 781.369 444.908 784.155 444.908C786.135 444.908 787.894 444.834 789.433 444.688C791.046 444.468 792.402 444.248 793.502 444.028L793.612 467.34C790.9 468.22 787.967 468.916 784.815 469.43C781.663 469.943 778.18 470.199 774.368 470.199C767.404 470.199 761.319 469.063 756.114 466.79C750.983 464.444 747.024 460.706 744.238 455.574C741.452 450.442 740.06 443.698 740.06 435.341V319.658ZM864.979 470.199C855.742 470.199 847.458 468.733 840.127 465.801C832.796 462.795 826.565 458.653 821.433 453.375C816.375 448.096 812.489 441.975 809.777 435.011C807.064 427.973 805.708 420.495 805.708 412.578V408.179C805.708 399.162 806.991 390.915 809.557 383.438C812.123 375.96 815.788 369.472 820.553 363.974C825.392 358.476 831.256 354.26 838.148 351.328C845.039 348.322 852.809 346.819 861.46 346.819C869.891 346.819 877.368 348.212 883.893 350.998C890.417 353.784 895.879 357.743 900.277 362.874C904.749 368.006 908.121 374.164 910.394 381.348C912.667 388.459 913.803 396.377 913.803 405.1V418.296H819.234V397.183H882.683V394.764C882.683 390.365 881.877 386.443 880.264 382.998C878.724 379.479 876.378 376.693 873.226 374.64C870.074 372.588 866.042 371.561 861.13 371.561C856.951 371.561 853.359 372.478 850.354 374.311C847.348 376.143 844.892 378.709 842.986 382.008C841.153 385.307 839.76 389.192 838.807 393.664C837.928 398.063 837.488 402.901 837.488 408.179V412.578C837.488 417.343 838.148 421.742 839.467 425.774C840.86 429.806 842.803 433.288 845.295 436.22C847.861 439.153 850.94 441.425 854.532 443.038C858.198 444.651 862.34 445.457 866.958 445.457C872.676 445.457 877.991 444.358 882.903 442.158C887.888 439.886 892.177 436.477 895.769 431.932L911.164 448.646C908.671 452.238 905.262 455.684 900.937 458.983C896.685 462.282 891.554 464.994 885.542 467.12C879.531 469.173 872.676 470.199 864.979 470.199Z" fill="black"/>
</svg>
