<svg width="25" height="25" viewBox="0 0 25 25" fill="none" xmlns="http://www.w3.org/2000/svg">
<mask id="mask0_72_651" style="mask-type:alpha" maskUnits="userSpaceOnUse" x="0" y="0" width="25" height="25">
<rect x="23.9891" width="24" height="24" transform="rotate(88.2768 23.9891 0)" fill="#D9D9D9"/>
</mask>
<g mask="url(#mask0_72_651)">
<path d="M3.02731 14.8871C2.63263 14.5154 2.42676 14.0464 2.40972 13.48C2.39268 12.9136 2.56998 12.4331 2.94161 12.0384L11.473 2.97772C11.6507 2.78895 11.8629 2.63667 12.1096 2.52087C12.3562 2.40507 12.6211 2.34291 12.9043 2.33439L20.0511 2.11938C20.6008 2.10284 21.0773 2.28443 21.4806 2.66414C21.8839 3.04385 22.0938 3.50858 22.1103 4.05833L22.3253 11.2051C22.3338 11.4883 22.2877 11.7565 22.187 12.0096C22.0862 12.2628 21.9469 12.4837 21.7692 12.6725L13.2128 21.7339C12.8412 22.1286 12.3763 22.3343 11.8182 22.3511C11.2602 22.3679 10.7838 22.1905 10.3891 21.8188L3.02731 14.8871ZM16.1882 6.73763C16.2007 7.15411 16.3572 7.50373 16.6575 7.78649C16.9578 8.06925 17.3162 8.20437 17.7326 8.19184C18.1491 8.17931 18.4987 8.0229 18.7815 7.72259C19.0643 7.42228 19.1994 7.06389 19.1868 6.64741C19.1743 6.23094 19.0179 5.88132 18.7176 5.59855C18.4173 5.31579 18.0589 5.18067 17.6424 5.1932C17.2259 5.20573 16.8763 5.36215 16.5936 5.66245C16.3108 5.96276 16.1757 6.32115 16.1882 6.73763Z" fill="#BABABA"/>
</g>
</svg>
